<svg xmlns="http://www.w3.org/2000/svg" xmlns:xlink="http://www.w3.org/1999/xlink" width="500" zoomAndPan="magnify" viewBox="0 0 375 374.999991" height="500" preserveAspectRatio="xMidYMid meet" version="1.0"><defs><g/><clipPath id="77bd8786c6"><path d="M 165.816406 0 L 213.816406 0 L 213.816406 375 L 165.816406 375 Z M 165.816406 0 " clip-rule="nonzero"/></clipPath></defs><rect x="-37.5" width="450" fill="#ffffff" y="-37.499999" height="449.999989" fill-opacity="1"/><rect x="-37.5" width="450" fill="#ffffff" y="-37.499999" height="449.999989" fill-opacity="1"/><rect x="-37.5" width="450" fill="#2b2b2b" y="-37.499999" height="449.999989" fill-opacity="1"/><g fill="#f4f4f4" fill-opacity="1"><g transform="translate(172.334935, 276.500007)"><g><path d="M 8.5 0 L 29.917969 0 L 29.917969 -2.210938 C 22.4375 -4.25 18.359375 -9.007812 18.359375 -28.390625 L 18.359375 -103.867188 L 61.878906 -32.300781 L 65.109375 -32.300781 L 108.285156 -105.226562 L 108.285156 -21.589844 C 108.285156 -7.648438 106.585938 -3.738281 101.488281 -2.210938 L 101.488281 0 L 129.027344 0 L 129.027344 -2.210938 C 123.757812 -3.738281 122.226562 -7.648438 122.226562 -21.589844 L 122.226562 -90.605469 C 122.226562 -109.988281 125.796875 -114.746094 132.597656 -116.785156 L 132.597656 -118.996094 L 113.386719 -118.996094 L 69.867188 -45.730469 L 25.5 -118.996094 L 4.929688 -118.996094 L 4.929688 -116.785156 C 11.730469 -114.746094 15.300781 -109.988281 15.300781 -90.605469 L 15.300781 -21.589844 C 15.300781 -7.648438 13.769531 -3.738281 8.5 -2.210938 Z M 8.5 0 "/></g></g></g><g fill="#f4f4f4" fill-opacity="1"><g transform="translate(78.543462, 214.447884)"><g><path d="M 8.667969 0 L 36.199219 0 L 36.199219 -2.210938 C 30.933594 -3.738281 29.402344 -7.648438 29.402344 -21.585938 L 29.402344 -47.078125 L 41.46875 -47.078125 C 73.082031 -47.078125 89.566406 -62.882812 89.566406 -85.488281 C 89.566406 -101.972656 78.351562 -118.96875 43.167969 -118.96875 L 8.667969 -118.96875 L 8.667969 -116.761719 C 13.765625 -115.230469 15.464844 -111.320312 15.464844 -97.386719 L 15.464844 -21.585938 C 15.464844 -7.648438 13.765625 -3.738281 8.667969 -2.210938 Z M 29.402344 -49.628906 L 29.402344 -116.082031 C 31.441406 -116.25 34.160156 -116.421875 36.539062 -116.421875 C 63.902344 -116.421875 74.613281 -99.765625 74.613281 -81.578125 C 74.613281 -61.523438 62.882812 -49.628906 41.128906 -49.628906 Z M 29.402344 -49.628906 "/></g></g></g><g clip-path="url(#77bd8786c6)"><path fill="#2b2b2b" d="M 165.816406 -7.589844 L 213.816406 -7.589844 L 213.816406 383.160156 L 165.816406 383.160156 Z M 165.816406 -7.589844 " fill-opacity="1" fill-rule="nonzero"/></g><g fill="#f4f4f4" fill-opacity="1"><g transform="translate(185.016804, 75.916196)"><g><path d="M 0 1.03125 L 0 4.3125 L 0.261719 4.3125 C 0.445312 3.683594 0.910156 3.503906 2.570312 3.503906 L 5.609375 3.503906 L 5.609375 4.941406 C 5.609375 8.707031 7.492188 10.671875 10.1875 10.671875 C 12.148438 10.671875 14.175781 9.335938 14.175781 5.144531 L 14.175781 1.03125 L 13.910156 1.03125 C 13.730469 1.640625 13.265625 1.84375 11.601562 1.84375 L 2.570312 1.84375 C 0.910156 1.84375 0.445312 1.640625 0.261719 1.03125 Z M 5.914062 3.503906 L 13.832031 3.503906 C 13.851562 3.746094 13.871094 4.070312 13.871094 4.355469 C 13.871094 7.613281 11.886719 8.890625 9.71875 8.890625 C 7.332031 8.890625 5.914062 7.492188 5.914062 4.902344 Z M 5.914062 3.503906 "/></g></g></g><g fill="#f4f4f4" fill-opacity="1"><g transform="translate(185.016804, 90.274511)"><g><path d="M 0 1.03125 L 0 4.3125 L 0.261719 4.3125 C 0.445312 3.683594 0.910156 3.503906 2.570312 3.503906 L 7.351562 3.503906 L 7.351562 11.21875 L 2.570312 11.21875 C 0.910156 11.21875 0.445312 11.015625 0.261719 10.410156 L 0 10.410156 L 0 13.6875 L 0.261719 13.6875 C 0.445312 13.0625 0.910156 12.878906 2.570312 12.878906 L 11.601562 12.878906 C 13.265625 12.878906 13.730469 13.0625 13.910156 13.6875 L 14.175781 13.6875 L 14.175781 10.410156 L 13.910156 10.410156 C 13.730469 11.015625 13.265625 11.21875 11.601562 11.21875 L 7.675781 11.21875 L 7.675781 3.503906 L 11.601562 3.503906 C 13.265625 3.503906 13.730469 3.683594 13.910156 4.3125 L 14.175781 4.3125 L 14.175781 1.03125 L 13.910156 1.03125 C 13.730469 1.640625 13.265625 1.84375 11.601562 1.84375 L 2.570312 1.84375 C 0.910156 1.84375 0.445312 1.640625 0.261719 1.03125 Z M 0 1.03125 "/></g></g></g><g fill="#f4f4f4" fill-opacity="1"><g transform="translate(185.016804, 108.156312)"><g><path d="M 0 -0.34375 L 0 1.945312 L 0.261719 1.945312 C 0.40625 1.253906 1.074219 1.175781 2.390625 1.699219 L 5.347656 2.894531 L 5.347656 8.605469 L 2.371094 9.839844 C 0.851562 10.488281 0.445312 10.652344 0.261719 10.023438 L 0 10.023438 L 0 13.164062 L 0.261719 13.164062 C 0.445312 12.738281 0.851562 12.25 2.371094 11.625 L 14.335938 6.640625 L 13.648438 5.125 L 13.222656 5.304688 C 12.898438 5.46875 12.636719 5.488281 12.273438 5.347656 L 2.390625 1.355469 C 0.851562 0.730469 0.445312 0.222656 0.261719 -0.34375 Z M 5.648438 3.015625 L 12.3125 5.710938 L 5.648438 8.484375 Z M 5.648438 3.015625 "/></g></g></g><g fill="#f4f4f4" fill-opacity="1"><g transform="translate(185.016804, 124.316862)"><g><path d="M 0 1.03125 L 0 4.3125 L 0.261719 4.3125 C 0.445312 3.683594 0.910156 3.503906 2.570312 3.503906 L 7.351562 3.503906 L 7.351562 11.21875 L 2.570312 11.21875 C 0.910156 11.21875 0.445312 11.015625 0.261719 10.410156 L 0 10.410156 L 0 13.6875 L 0.261719 13.6875 C 0.445312 13.0625 0.910156 12.878906 2.570312 12.878906 L 11.601562 12.878906 C 13.265625 12.878906 13.730469 13.0625 13.910156 13.6875 L 14.175781 13.6875 L 14.175781 10.410156 L 13.910156 10.410156 C 13.730469 11.015625 13.265625 11.21875 11.601562 11.21875 L 7.675781 11.21875 L 7.675781 3.503906 L 11.601562 3.503906 C 13.265625 3.503906 13.730469 3.683594 13.910156 4.3125 L 14.175781 4.3125 L 14.175781 1.03125 L 13.910156 1.03125 C 13.730469 1.640625 13.265625 1.84375 11.601562 1.84375 L 2.570312 1.84375 C 0.910156 1.84375 0.445312 1.640625 0.261719 1.03125 Z M 0 1.03125 "/></g></g></g><g fill="#f4f4f4" fill-opacity="1"><g transform="translate(185.016804, 142.198666)"><g><path d="M 0 1.03125 L 0 10.449219 L 2.289062 10.589844 L 2.328125 10.367188 C 0.808594 9.660156 0.324219 8.769531 0.324219 6.824219 L 0.324219 4.414062 C 0.324219 3.828125 0.648438 3.503906 1.234375 3.503906 L 11.601562 3.503906 C 13.265625 3.503906 13.730469 3.683594 13.910156 4.3125 L 14.175781 4.3125 L 14.175781 1.03125 L 13.910156 1.03125 C 13.730469 1.640625 13.265625 1.84375 11.601562 1.84375 L 2.570312 1.84375 C 0.910156 1.84375 0.445312 1.640625 0.261719 1.03125 Z M 0 1.03125 "/></g></g></g><g fill="#f4f4f4" fill-opacity="1"><g transform="translate(185.016804, 156.374736)"><g><path d="M 0 -0.34375 L 0 1.945312 L 0.261719 1.945312 C 0.40625 1.253906 1.074219 1.175781 2.390625 1.699219 L 5.347656 2.894531 L 5.347656 8.605469 L 2.371094 9.839844 C 0.851562 10.488281 0.445312 10.652344 0.261719 10.023438 L 0 10.023438 L 0 13.164062 L 0.261719 13.164062 C 0.445312 12.738281 0.851562 12.25 2.371094 11.625 L 14.335938 6.640625 L 13.648438 5.125 L 13.222656 5.304688 C 12.898438 5.46875 12.636719 5.488281 12.273438 5.347656 L 2.390625 1.355469 C 0.851562 0.730469 0.445312 0.222656 0.261719 -0.34375 Z M 5.648438 3.015625 L 12.3125 5.710938 L 5.648438 8.484375 Z M 5.648438 3.015625 "/></g></g></g><g fill="#f4f4f4" fill-opacity="1"><g transform="translate(185.016804, 172.535292)"><g><path d="M 0 1.03125 L 0 6.339844 C 0 10.792969 3.078125 13.667969 7.351562 13.648438 C 10.632812 13.628906 14.175781 11.441406 14.175781 5.871094 L 14.175781 1.03125 L 13.910156 1.03125 C 13.730469 1.640625 13.265625 1.84375 11.601562 1.84375 L 2.570312 1.84375 C 0.910156 1.84375 0.445312 1.640625 0.261719 1.03125 Z M 1.78125 3.503906 L 13.871094 3.503906 L 13.871094 4.878906 C 13.871094 9.394531 10.589844 11.804688 6.539062 11.804688 C 2.308594 11.804688 0.304688 9.839844 0.304688 6.296875 L 0.304688 4.820312 C 0.304688 3.707031 0.832031 3.503906 1.78125 3.503906 Z M 1.78125 3.503906 "/></g></g></g><g fill="#f4f4f4" fill-opacity="1"><g transform="translate(185.016804, 190.396851)"><g><path d="M 0 1.03125 L 0 4.3125 L 0.261719 4.3125 C 0.445312 3.683594 0.910156 3.503906 2.570312 3.503906 L 11.601562 3.503906 C 13.265625 3.503906 13.730469 3.683594 13.910156 4.3125 L 14.175781 4.3125 L 14.175781 1.03125 L 13.910156 1.03125 C 13.730469 1.640625 13.265625 1.84375 11.601562 1.84375 L 2.570312 1.84375 C 0.910156 1.84375 0.445312 1.640625 0.261719 1.03125 Z M 0 1.03125 "/></g></g></g><g fill="#f4f4f4" fill-opacity="1"><g transform="translate(185.016804, 198.923179)"><g><path d="M -0.140625 11.339844 C -0.140625 11.746094 -0.101562 12.273438 0 12.574219 L 0.242188 12.574219 C 0.222656 12.472656 0.222656 12.371094 0.222656 12.25 C 0.222656 11.5625 0.890625 11.15625 3.320312 10.1875 C 5.8125 9.214844 7.046875 8.828125 7.371094 6.339844 C 7.675781 8.972656 9.113281 10.347656 11.015625 10.347656 C 12.816406 10.347656 14.175781 9.132812 14.175781 5.023438 L 14.175781 1.03125 L 13.910156 1.03125 C 13.730469 1.660156 13.265625 1.84375 11.601562 1.84375 L 2.570312 1.84375 C 0.910156 1.84375 0.445312 1.660156 0.261719 1.03125 L 0 1.03125 L 0 4.3125 L 0.261719 4.3125 C 0.445312 3.683594 0.910156 3.503906 2.570312 3.503906 L 7.308594 3.503906 L 7.308594 4.800781 C 7.308594 7.230469 5.894531 7.390625 3.097656 8.566406 C 0.992188 9.457031 -0.140625 9.78125 -0.140625 11.339844 Z M 7.613281 3.503906 L 13.832031 3.503906 C 13.851562 3.828125 13.871094 4.152344 13.871094 4.453125 C 13.871094 7.453125 12.351562 8.625 10.550781 8.625 C 8.828125 8.625 7.613281 7.53125 7.613281 5.203125 Z M 7.613281 3.503906 "/></g></g></g><g fill="#f4f4f4" fill-opacity="1"><g transform="translate(185.016804, 214.496493)"><g><path d="M 0 -0.34375 L 0 1.945312 L 0.261719 1.945312 C 0.40625 1.253906 1.074219 1.175781 2.390625 1.699219 L 5.347656 2.894531 L 5.347656 8.605469 L 2.371094 9.839844 C 0.851562 10.488281 0.445312 10.652344 0.261719 10.023438 L 0 10.023438 L 0 13.164062 L 0.261719 13.164062 C 0.445312 12.738281 0.851562 12.25 2.371094 11.625 L 14.335938 6.640625 L 13.648438 5.125 L 13.222656 5.304688 C 12.898438 5.46875 12.636719 5.488281 12.273438 5.347656 L 2.390625 1.355469 C 0.851562 0.730469 0.445312 0.222656 0.261719 -0.34375 Z M 5.648438 3.015625 L 12.3125 5.710938 L 5.648438 8.484375 Z M 5.648438 3.015625 "/></g></g></g><g fill="#f4f4f4" fill-opacity="1"><g transform="translate(185.016804, 230.657049)"><g/></g></g><g fill="#f4f4f4" fill-opacity="1"><g transform="translate(185.016804, 238.089872)"><g><path d="M 0 1.011719 L 0 3.5625 L 0.261719 3.5625 C 0.507812 2.671875 1.074219 2.1875 3.382812 2.1875 L 12.371094 2.1875 L 3.847656 7.371094 L 3.847656 7.753906 L 12.535156 12.898438 L 2.570312 12.898438 C 0.910156 12.898438 0.445312 12.695312 0.261719 12.089844 L 0 12.089844 L 0 15.371094 L 0.261719 15.371094 C 0.445312 14.742188 0.910156 14.558594 2.570312 14.558594 L 10.792969 14.558594 C 13.101562 14.558594 13.667969 14.984375 13.910156 15.796875 L 14.175781 15.796875 L 14.175781 13.507812 L 5.445312 8.324219 L 14.175781 3.039062 L 14.175781 0.585938 L 13.910156 0.585938 C 13.667969 1.398438 13.101562 1.824219 10.792969 1.824219 L 2.570312 1.824219 C 0.910156 1.824219 0.445312 1.640625 0.261719 1.011719 Z M 0 1.011719 "/></g></g></g><g fill="#f4f4f4" fill-opacity="1"><g transform="translate(185.016804, 258.097931)"><g><path d="M -0.203125 8.261719 C -0.203125 11.664062 2.023438 15.429688 7.027344 15.429688 C 11.988281 15.429688 14.335938 11.683594 14.335938 8.261719 C 14.335938 3.96875 11.257812 1.054688 7.109375 1.054688 C 2.085938 1.054688 -0.203125 4.820312 -0.203125 8.261719 Z M 8.28125 2.671875 C 11.582031 2.550781 13.871094 4.355469 13.871094 7.433594 C 13.871094 11.054688 9.921875 13.710938 5.691406 13.851562 C 2.652344 13.953125 0.304688 12.351562 0.304688 9.113281 C 0.304688 5.488281 4.210938 2.816406 8.28125 2.671875 Z M 8.28125 2.671875 "/></g></g></g><g fill="#f4f4f4" fill-opacity="1"><g transform="translate(185.016804, 277.741484)"><g><path d="M -2.429688 -1.296875 C -2.429688 1.316406 0.0820312 3.746094 3.96875 3.746094 L 11.601562 3.746094 C 13.265625 3.746094 13.730469 3.929688 13.910156 4.554688 L 14.175781 4.554688 L 14.175781 1.296875 L 13.910156 1.296875 C 13.730469 1.921875 13.265625 2.105469 11.601562 2.105469 L 1.5 2.105469 C -0.546875 2.105469 -1.054688 1.519531 -1.355469 1.03125 C -1.152344 0.0625 -1.054688 -0.425781 -1.054688 -0.992188 C -1.054688 -1.699219 -1.558594 -2.105469 -1.984375 -2.105469 C -2.371094 -2.105469 -2.429688 -1.824219 -2.429688 -1.296875 Z M -2.429688 -1.296875 "/></g></g></g><g fill="#f4f4f4" fill-opacity="1"><g transform="translate(185.016804, 286.510794)"><g><path d="M 0 -0.34375 L 0 1.945312 L 0.261719 1.945312 C 0.40625 1.253906 1.074219 1.175781 2.390625 1.699219 L 5.347656 2.894531 L 5.347656 8.605469 L 2.371094 9.839844 C 0.851562 10.488281 0.445312 10.652344 0.261719 10.023438 L 0 10.023438 L 0 13.164062 L 0.261719 13.164062 C 0.445312 12.738281 0.851562 12.25 2.371094 11.625 L 14.335938 6.640625 L 13.648438 5.125 L 13.222656 5.304688 C 12.898438 5.46875 12.636719 5.488281 12.273438 5.347656 L 2.390625 1.355469 C 0.851562 0.730469 0.445312 0.222656 0.261719 -0.34375 Z M 5.648438 3.015625 L 12.3125 5.710938 L 5.648438 8.484375 Z M 5.648438 3.015625 "/></g></g></g></svg>